<svg xmlns="http://www.w3.org/2000/svg" width="65" height="65" viewBox="0 0 65 65"><g transform="translate(-493.651 -97.651)"><circle cx="32.5" cy="32.5" r="32.5" transform="translate(493.651 97.651)" fill="#535353"/><circle cx="6.072" cy="6.072" r="6.072" transform="translate(508.852 106.792)" fill="#f7f7f7"/><circle cx="4.51" cy="4.51" r="4.51" transform="translate(537.46 111.575)" fill="#f7f7f7"/><circle cx="3.969" cy="3.969" r="3.969" transform="translate(521.541 126.296)" fill="#f7f7f7"/><circle cx="1.668" cy="1.668" r="1.668" transform="translate(528.316 140.576)" fill="#f7f7f7"/><circle cx="1.668" cy="1.668" r="1.668" transform="translate(507.181 127.806)" fill="#f7f7f7"/><path d="M84.242,39.616A32.344,32.344,0,0,1,39.616,84.242,32.363,32.363,0,1,0,84.242,39.616Z" transform="translate(459.276 63.276)" fill="#313131"/><circle cx="2.235" cy="2.235" r="2.235" transform="translate(525.01 154.45)" fill="#f7f7f7"/><circle cx="3.307" cy="3.307" r="3.307" transform="translate(510.516 138.936)" fill="#f7f7f7"/><circle cx="3.307" cy="3.307" r="3.307" transform="translate(543.745 137.27)" fill="#f7f7f7"/></g></svg>